<svg width="512" height="512" viewBox="0 0 512 512" fill="none" xmlns="http://www.w3.org/2000/svg">
<circle cx="256.44" cy="246.44" r="246.44" fill="#E47D9D"/>
<path d="M159.071 398.184C159.071 433.768 106.496 481.83 61.8605 481.83C17.2245 481.83 12.1245 462.027 12.1245 426.443C12.1245 390.859 48.3091 362.012 92.945 362.012C137.581 362.012 159.071 362.6 159.071 398.184Z" fill="#854521"/>
<path d="M159.071 328.667C159.071 367.996 172.057 398.184 127.421 398.184C82.785 398.184 61.8602 383.256 61.8602 343.927C61.8602 304.597 98.0448 272.714 142.681 272.714C187.317 272.714 159.071 289.337 159.071 328.667Z" fill="#854521"/>
<path d="M261.933 252.368C261.933 291.697 225.749 323.58 181.113 323.58C136.477 323.58 100.292 291.697 100.292 252.368C100.292 213.038 136.477 181.155 181.113 181.155C225.749 181.155 261.933 213.038 261.933 252.368Z" fill="#854521"/>
<path d="M261.933 181.155C261.933 220.485 225.749 252.368 181.113 252.368C136.477 252.368 100.292 220.485 100.292 181.155C100.292 141.826 136.477 109.943 181.113 109.943C225.749 109.943 261.933 141.826 261.933 181.155Z" fill="#854521"/>
<path d="M289.062 137.071C289.062 176.401 252.877 208.284 208.241 208.284C163.605 208.284 127.421 176.401 127.421 137.071C127.421 97.7418 163.605 65.8589 208.241 65.8589C252.877 65.8589 289.062 97.7418 289.062 137.071Z" fill="#854521"/>
<path d="M370.448 137.071C370.448 176.401 334.263 208.284 289.627 208.284C244.991 208.284 208.807 176.401 208.807 137.071C208.807 97.7418 244.991 65.8589 289.627 65.8589C334.263 65.8589 370.448 97.7418 370.448 137.071Z" fill="#854521"/>
<path d="M414.532 208.284C414.532 247.613 378.347 279.496 333.711 279.496C289.075 279.496 252.89 247.613 252.89 208.284C252.89 168.954 289.075 137.071 333.711 137.071C378.347 137.071 414.532 168.954 414.532 208.284Z" fill="#854521"/>
<path d="M434.878 297.582C434.878 336.912 398.693 368.794 354.057 368.794C309.422 368.794 273.237 336.912 273.237 297.582C273.237 258.252 309.422 226.37 354.057 226.37C398.693 226.37 434.878 258.252 434.878 297.582Z" fill="#854521"/>
<path d="M500.439 377.837C500.439 417.167 464.254 449.05 419.618 449.05C374.982 449.05 299.235 417.167 299.235 377.837C299.235 338.508 374.982 306.625 419.618 306.625C464.254 306.625 500.439 338.508 500.439 377.837Z" fill="#854521"/>
<path d="M252.891 359.752C252.891 395.96 220.249 425.312 179.983 425.312C139.717 425.312 107.075 395.96 107.075 359.752C107.075 323.543 139.717 294.191 179.983 294.191C220.249 294.191 252.891 323.543 252.891 359.752Z" fill="#854521"/>
<path d="M222.371 174.373C255.357 165.183 261.461 152.708 274.932 131.985C295.019 184.775 312.782 201.896 346.145 229.196C353.492 213.371 360.839 212.805 367.056 232.587C373.273 252.368 358.582 260.342 356.318 261.411C354.054 262.48 335.028 303.601 305.452 325.276C302.601 335.208 302.977 340.777 305.452 350.709L232.544 355.23C236.239 345.762 237.318 340.443 236.5 330.928C213.089 317.635 200.747 307.116 182.243 276.105C164.419 268.839 159.636 259.715 163.592 242.195C167.548 224.674 178.852 242.195 178.852 242.195C178.852 242.195 217.417 206.49 222.371 174.373Z" fill="#FDBCA8"/>
<path d="M305.452 350.709C302.977 340.777 302.601 335.208 305.452 325.276C294.371 333.53 276.628 335.449 270.411 336.014C264.194 336.579 248.376 335.951 236.5 330.928C237.318 340.443 236.239 345.762 232.544 355.23L305.452 350.709Z" fill="#FFAD93"/>
<ellipse cx="225.197" cy="230.325" rx="7.34732" ry="8.47768" fill="#482511"/>
<ellipse cx="299.8" cy="219.022" rx="7.34732" ry="8.47768" fill="#482511"/>
<path d="M207.684 205.067C215.498 198.371 219.795 197.318 226.894 197.261" stroke="#482511" stroke-width="3.18673"/>
<path d="M308.319 185.067C299.587 182.675 295.176 183.646 287.768 187.828" stroke="#482511" stroke-width="3.18673"/>
<path d="M260.196 283.929C269.864 291.389 277.056 290.021 285.521 277.483" stroke="#B84A2D" stroke-width="3.18673" stroke-linejoin="round"/>
<path d="M266.068 264.313C265.537 260.68 267.1 257.154 269.679 252.69C272.45 257.841 274.797 260.149 273.515 264.606C272.233 269.064 266.598 267.947 266.068 264.313Z" fill="#B84A2D" stroke="#B84A2D" stroke-width="0.330855" stroke-linejoin="round"/>
<circle cx="224.632" cy="268.192" r="13.5643" fill="#EF8D8C"/>
<circle cx="315.626" cy="255.194" r="14.1295" fill="#EF8D8C"/>
<path d="M248.934 228.065C261.12 223.456 262.595 221.48 277.193 221.848" stroke="black" stroke-width="0.827137"/>
<path d="M305.611 345.057C277.884 353.162 261.403 354.982 233.674 349.013C224.998 370.542 218.982 380.344 201.477 389.98C109.872 434.453 93.0451 441.299 53.3823 497.09H468.788C425.909 445.312 328.686 384.926 318.628 377.064C308.569 369.203 309.331 359.74 305.611 345.057Z" fill="#E76E6C"/>
<path d="M56.1192 493.913C57.8208 492.684 59.8661 492.023 61.9646 492.023H460.089C461.804 492.023 463.491 492.465 464.986 493.306C473.944 498.345 470.367 512 460.089 512H61.9646C52.2727 512 48.2603 499.585 56.1192 493.913Z" fill="#E76E6C"/>
<path d="M250.216 232.587C250.216 243.887 240.554 253.085 228.588 253.085C216.622 253.085 206.96 243.887 206.96 232.587C206.96 221.286 216.622 212.089 228.588 212.089C240.554 212.089 250.216 221.286 250.216 232.587Z" stroke="black" stroke-width="0.827137"/>
<path d="M208.241 232.587L193.547 227.5" stroke="black" stroke-width="0.827137"/>
<path d="M319.441 216.458C321.094 226.912 312.927 236.969 301.084 238.842C289.24 240.715 278.368 233.668 276.715 223.215C275.062 212.762 283.229 202.705 295.073 200.832C306.916 198.959 317.788 206.005 319.441 216.458Z" stroke="black" stroke-width="0.827137"/>
<path d="M315.782 210.422L320.147 206.588" stroke="black" stroke-width="0.827137"/>
<path d="M187.151 133.638C167.176 141.944 161.061 154.691 160.358 178.042" stroke="#733918" stroke-width="3.18673"/>
<path d="M143.811 298.712C124.483 309.208 119.689 327.608 125.16 352.404" stroke="#733918" stroke-width="3.18673"/>
<path d="M96.9015 386.315C63.9628 407.581 71.3385 420.943 66.3818 440.572" stroke="#733918" stroke-width="3.18673"/>
<path d="M304.887 115.3C343.791 110.35 341.059 132.444 328.536 145.078C316.014 157.712 357.449 153.462 363.101 160.917C368.753 168.373 364.507 182.554 360.069 191.329" stroke="#733918" stroke-width="3.18673"/>
<path d="M358.578 292.495C376.452 301.761 383.716 308.797 380.62 332.058" stroke="#733918" stroke-width="3.18673"/>
<path d="M430.357 358.622C456.633 367.414 467.427 374.673 465.963 399.88" stroke="#733918" stroke-width="3.18673"/>
</svg>
